<svg xmlns:xlink="http://www.w3.org/1999/xlink" xmlns="http://www.w3.org/2000/svg" width="90px" height="21px" viewBox="0 0 90 21" version="1.1">
	<g id="CyberGeek" fill="#FFFFFF">
	  <path d="M24.1016 15.1719L24.1328 15.1719Q24.8906 16.2969 26.3672 16.2969Q28 16.2969 28.9766 15.0859Q29.9531 13.875 29.9531 11.875Q29.9531 10.0313 29.1172 8.96875Q28.2813 7.90625 26.7344 7.90625Q25.0469 7.90625 24.1328 9.30469L24.1016 9.30469L24.1016 4.25781L21.6328 4.25781L21.6328 16.1016L24.1016 16.1016L24.1016 15.1719ZM86.3203 16.1016L89.2813 16.1016L86.2109 11.8594L89.0781 8.10156L86.1484 8.10156L83.7656 11.7969L83.7344 11.7969L83.7344 4.25781L81.2656 4.25781L81.2656 16.1016L83.7344 16.1016L83.7344 12.1328L83.7656 12.1328L86.3203 16.1016ZM9.3125 15.7031Q8.08594 16.2969 6.10938 16.2969Q3.53125 16.2969 2.05469 14.7813Q0.578125 13.2656 0.578125 10.7422Q0.578125 8.05469 2.23828 6.38281Q3.89844 4.71094 6.54688 4.71094Q8.1875 4.71094 9.3125 5.125L9.3125 7.55469Q8.1875 6.88281 6.75 6.88281Q5.17188 6.88281 4.20313 7.875Q3.23437 8.86719 3.23438 10.5625Q3.23437 12.1875 4.14844 13.1523Q5.0625 14.1172 6.60938 14.1172Q8.08594 14.1172 9.3125 13.3984L9.3125 15.7031ZM59.0156 15.3516Q57.375 16.2969 54.9375 16.2969Q52.2344 16.2969 50.6758 14.8008Q49.1172 13.3047 49.1172 10.6797Q49.1172 8.03906 50.8203 6.375Q52.5234 4.71094 55.3516 4.71094Q57.1328 4.71094 58.4922 5.20313L58.4922 7.57031Q57.1953 6.82031 55.3203 6.82031Q53.75 6.82031 52.7617 7.83984Q51.7734 8.85938 51.7734 10.5625Q51.7734 12.2891 52.6602 13.2344Q53.5469 14.1797 55.0547 14.1797Q55.9609 14.1797 56.4922 13.9219L56.4922 11.7344L54.25 11.7344L54.25 9.71875L59.0156 9.71875L59.0156 15.3516ZM39.7422 12.8047L34.5234 12.8047Q34.6484 14.5469 36.7188 14.5469Q38.0391 14.5469 39.0391 13.9219L39.0391 15.7031Q37.9297 16.2969 36.1563 16.2969Q34.2188 16.2969 33.1484 15.2227Q32.0781 14.1484 32.0781 12.2266Q32.0781 10.2344 33.2344 9.07031Q34.3906 7.90625 36.0781 7.90625Q37.8281 7.90625 38.7852 8.94531Q39.7422 9.98438 39.7422 11.7656L39.7422 12.8047ZM63.9219 12.8047L69.1406 12.8047L69.1406 11.7656Q69.1406 9.98438 68.1836 8.94531Q67.2266 7.90625 65.4766 7.90625Q63.7891 7.90625 62.6328 9.07031Q61.4766 10.2344 61.4766 12.2266Q61.4766 14.1484 62.5469 15.2227Q63.6172 16.2969 65.5547 16.2969Q67.3281 16.2969 68.4375 15.7031L68.4375 13.9219Q67.4375 14.5469 66.1172 14.5469Q64.0469 14.5469 63.9219 12.8047ZM78.7969 12.8047L73.5781 12.8047Q73.7031 14.5469 75.7734 14.5469Q77.0938 14.5469 78.0938 13.9219L78.0938 15.7031Q76.9844 16.2969 75.2109 16.2969Q73.2734 16.2969 72.2031 15.2227Q71.1328 14.1484 71.1328 12.2266Q71.1328 10.2344 72.2891 9.07031Q73.4453 7.90625 75.1328 7.90625Q76.8828 7.90625 77.8398 8.94531Q78.7969 9.98438 78.7969 11.7656L78.7969 12.8047ZM46.3906 10.0859Q46.9844 10.0859 47.4297 10.3281L47.4297 8.05469Q47.2109 7.96094 46.8203 7.96094Q45.2969 7.96094 44.7109 9.58594L44.6797 9.58594L44.6797 8.10156L42.2109 8.10156L42.2109 16.1016L44.6797 16.1016L44.6797 12.2813Q44.6797 11.2656 45.1328 10.6758Q45.5859 10.0859 46.3906 10.0859ZM19.6406 8.10156L16.3906 16.7422Q15.2188 19.8594 12.8594 19.8594Q11.9609 19.8594 11.3828 19.6563L11.3828 17.6875Q11.875 17.9766 12.4531 17.9766Q13.4063 17.9766 13.7813 17.0781L14.2031 16.0859L10.9531 8.10156L13.6875 8.10156L15.1797 12.9688Q15.3203 13.4219 15.3984 14.0391L15.4297 14.0391Q15.5 13.5859 15.6875 12.9844L17.1953 8.10156L19.6406 8.10156ZM37.4531 11.2891Q37.4531 9.57031 36.0625 9.57031Q35.4688 9.57031 35.0352 10.0625Q34.6016 10.5547 34.5078 11.2891L37.4531 11.2891ZM65.4609 9.57031Q66.8516 9.57031 66.8516 11.2891L63.9063 11.2891Q64 10.5547 64.4336 10.0625Q64.8672 9.57031 65.4609 9.57031ZM76.5078 11.2891Q76.5078 9.57031 75.1172 9.57031Q74.5234 9.57031 74.0898 10.0625Q73.6563 10.5547 73.5625 11.2891L76.5078 11.2891ZM24.0625 12.6172L24.0625 11.7969Q24.0625 10.9063 24.5508 10.3516Q25.0391 9.79688 25.7813 9.79688Q26.5703 9.79688 26.9961 10.3555Q27.4219 10.9141 27.4219 11.9063Q27.4219 13.1016 26.957 13.7539Q26.4922 14.4063 25.6484 14.4063Q24.9531 14.4063 24.5078 13.8984Q24.0625 13.3906 24.0625 12.6172Z"/>
	</g>
  </svg>